<?xml version="1.0" encoding="UTF-8" standalone="no"?>
<svg
   xmlns:dc="http://purl.org/dc/elements/1.1/"
   xmlns:cc="http://creativecommons.org/ns#"
   xmlns:rdf="http://www.w3.org/1999/02/22-rdf-syntax-ns#"
   xmlns:svg="http://www.w3.org/2000/svg"
   xmlns="http://www.w3.org/2000/svg"
   xmlns:sodipodi="http://sodipodi.sourceforge.net/DTD/sodipodi-0.dtd"
   xmlns:inkscape="http://www.inkscape.org/namespaces/inkscape"
   style="height: 512px; width: 512px;"
   viewBox="0 0 512 512"
   version="1.1"
   id="svg6"
   sodipodi:docname="drone-weapon.svg"
   inkscape:version="1.0.2-2 (e86c870879, 2021-01-15)">
  <metadata
     id="metadata12">
    <rdf:RDF>
      <cc:Work
         rdf:about="">
        <dc:format>image/svg+xml</dc:format>
        <dc:type
           rdf:resource="http://purl.org/dc/dcmitype/StillImage" />
        <dc:title />
      </cc:Work>
    </rdf:RDF>
  </metadata>
  <defs
     id="defs10" />
  <sodipodi:namedview
     pagecolor="#ffffff"
     bordercolor="#666666"
     borderopacity="1"
     objecttolerance="10"
     gridtolerance="10"
     guidetolerance="10"
     inkscape:pageopacity="0"
     inkscape:pageshadow="2"
     inkscape:window-width="3840"
     inkscape:window-height="2066"
     id="namedview8"
     showgrid="false"
     inkscape:zoom="1.96875"
     inkscape:cx="256"
     inkscape:cy="256"
     inkscape:window-x="-11"
     inkscape:window-y="-11"
     inkscape:window-maximized="1"
     inkscape:current-layer="svg6"
     inkscape:document-rotation="0" />
  <path
     d="m 47.03,95.843 v 79.563 l 28.032,16.375 c 1.528,-36.73 31.968,-66.217 69.063,-66.217 38.065,0 69.125,31.06 69.125,69.125 0,24.73 -13.126,46.498 -32.75,58.718 l 26.813,15.656 h 52.843 V 95.845 H 47.03 Z m 330.064,44.813 v 83.438 h 62.937 v -83.438 h -62.936 z m -232.97,3.594 c -27.964,0 -50.436,22.472 -50.436,50.438 0,11.272 3.652,21.655 9.843,30.03 l -22.593,26.47 c 5.946,2.36 11.307,5.876 15.844,10.25 l 20.5,-24.032 c 7.77,4.875 16.95,7.72 26.845,7.72 27.965,0 50.438,-22.473 50.438,-50.438 0,-27.966 -22.473,-50.438 -50.438,-50.438 z m 134.72,12.094 v 52.062 h 79.562 v -52.062 z m 179.875,0 v 52.062 h 25.967 V 156.344 H 458.72 Z M 144.593,162 c 17.964,0 32.72,14.786 32.72,32.75 0,17.964 -14.755,32.72 -32.72,32.72 -17.965,0 -32.75,-14.756 -32.75,-32.72 0,-17.964 14.787,-32.75 32.751,-32.75 z m 0,18.688 c -7.865,0 -14.063,6.197 -14.063,14.062 0,7.865 6.2,14.03 14.064,14.03 7.864,0 14.03,-6.165 14.03,-14.03 0,-7.865 -6.166,-14.063 -14.03,-14.063 z m -81.47,85.78 c -16.628,0 -29.905,13.278 -29.905,29.907 0,16.63 13.276,29.906 29.905,29.906 16.63,0 29.906,-13.276 29.906,-29.905 0,-16.63 -13.276,-29.906 -29.905,-29.906 z m 30.595,67.594 c -5.02,4.087 -10.88,7.2 -17.25,9.032 l 34.843,36.375 c -7.837,8.395 -13.984,18.42 -17.876,29.5 H 54.5 v 18.686 h 34.688 c -0.002,0.01 0,0.02 0,0.03 l 19.718,0.002 c 4.553,-31.235 31.577,-55.375 64.03,-55.375 32.456,0 59.453,24.14 64,55.375 h 19.75 c 0,-0.01 0.003,-0.02 0.002,-0.032 h 35.125 V 408.97 h -39.375 c -11.52,-32.797 -42.69,-56.22 -79.5,-56.22 -17.618,0 -33.94,5.345 -47.438,14.53 L 93.72,334.063 Z M 172.937,391 c -22.322,0 -40.812,15.68 -45.094,36.688 H 218 C 213.718,406.68 195.26,391 172.937,391 Z"
     fill="#000000"
     fill-opacity="1"
     id="path2"
     sodipodi:nodetypes="cccssccccccccccccssccccssssccccccccccccssscccssscccssscccccccccccsccccccscccsccs" />
</svg>
