<?xml version="1.0" encoding="UTF-8" standalone="no"?>
<svg
   xmlns:dc="http://purl.org/dc/elements/1.1/"
   xmlns:cc="http://creativecommons.org/ns#"
   xmlns:rdf="http://www.w3.org/1999/02/22-rdf-syntax-ns#"
   xmlns:svg="http://www.w3.org/2000/svg"
   xmlns="http://www.w3.org/2000/svg"
   xmlns:sodipodi="http://sodipodi.sourceforge.net/DTD/sodipodi-0.dtd"
   xmlns:inkscape="http://www.inkscape.org/namespaces/inkscape"
   style="height: 512px; width: 512px;"
   viewBox="0 0 512 512"
   version="1.1"
   id="svg6"
   sodipodi:docname="unknown.svg"
   inkscape:version="1.0.2-2 (e86c870879, 2021-01-15)">
  <metadata
     id="metadata12">
    <rdf:RDF>
      <cc:Work
         rdf:about="">
        <dc:format>image/svg+xml</dc:format>
        <dc:type
           rdf:resource="http://purl.org/dc/dcmitype/StillImage" />
        <dc:title></dc:title>
      </cc:Work>
    </rdf:RDF>
  </metadata>
  <defs
     id="defs10" />
  <sodipodi:namedview
     pagecolor="#ffffff"
     bordercolor="#666666"
     borderopacity="1"
     objecttolerance="10"
     gridtolerance="10"
     guidetolerance="10"
     inkscape:pageopacity="0"
     inkscape:pageshadow="2"
     inkscape:window-width="1908"
     inkscape:window-height="1183"
     id="namedview8"
     showgrid="false"
     inkscape:zoom="0.984375"
     inkscape:cx="138.88193"
     inkscape:cy="171.61159"
     inkscape:window-x="0"
     inkscape:window-y="0"
     inkscape:window-maximized="0"
     inkscape:current-layer="svg6" />
  <path
     d="M 258.60723,11.159982 C 197.20345,11.101712 121.64387,47.401206 99.412146,141.25993 l 75.316584,17.74372 C 208.15938,64.480404 287.38746,71.197527 315.20811,123.51497 348.40319,185.93289 204.01603,256.5222 210.91292,359.5776 h 96.31597 C 315.27505,237.90071 454.72913,206.47727 381.07261,75.011088 358.8285,35.303441 313.00254,13.225454 264.49742,11.313714 v -0.03719 c -1.95017,-0.07687 -3.90902,-0.11406 -5.88895,-0.116539 z m 1.7047,373.252868 c -33.41205,0 -60.24583,26.83378 -60.24583,60.24335 0,33.41205 26.83502,60.24583 60.24583,60.24583 33.41204,0 60.24582,-26.83502 60.24582,-60.24583 0,-33.40957 -26.83502,-60.24459 -60.24582,-60.24459 z"
     fill="#000000"
     fill-opacity="1"
     id="path2"
     sodipodi:nodetypes="sccccccccsscssscc"
     style="stroke-width:1.23978" />
</svg>
